<svg width="102" height="35" viewBox="0 0 102 35" fill="none" xmlns="http://www.w3.org/2000/svg">
<path d="M0.46 8.7C0.46 4.82 3.22 2.16 6.86 2.16C10.66 2.16 12.72 4.56 12.94 7.72L10.04 7.84C9.86 6.24 8.94 4.84 6.84 4.84C4.82 4.84 3.58 6.34 3.58 8.7C3.58 11.06 4.82 12.56 6.84 12.56C8.94 12.56 9.86 11.16 10.04 9.56L12.94 9.68C12.72 12.84 10.66 15.24 6.86 15.24C3.22 15.24 0.46 12.58 0.46 8.7ZM25.4994 15H22.4194C22.1594 14.66 21.9994 13.84 21.8994 12.5C21.7994 11.08 21.1594 10.62 19.8994 10.62H17.3594V15H14.3794V2.4H20.4594C23.7194 2.4 25.3194 3.92 25.3194 6.34C25.3194 8.2 24.1394 9.36 22.5994 9.56C23.9394 9.82 24.6994 10.6 24.8394 12.08C25.0194 13.94 25.0794 14.54 25.4994 15ZM17.3594 8.28H19.9794C21.5594 8.28 22.3394 7.82 22.3394 6.58C22.3394 5.46 21.5594 4.84 19.9794 4.84H17.3594V8.28ZM32.418 15.24C29.278 15.24 26.838 13.72 26.838 10.04V2.4H29.858V9.6C29.858 11.62 30.578 12.68 32.418 12.68C34.278 12.68 34.998 11.62 34.998 9.62V2.4H38.018V10.04C38.018 13.72 35.578 15.24 32.418 15.24ZM39.3258 10.52L42.1058 10.42C42.2258 12.16 43.5258 12.86 45.0858 12.86C46.4258 12.86 47.2658 12.34 47.2658 11.5C47.2658 10.66 46.5258 10.46 45.4258 10.24L43.0658 9.82C41.0658 9.44 39.6458 8.32 39.6458 6.18C39.6458 3.7 41.5858 2.16 44.6458 2.16C48.0658 2.16 49.9258 3.86 49.9858 6.66L47.1858 6.74C47.1058 5.26 46.0858 4.54 44.6258 4.54C43.3458 4.54 42.6258 5.06 42.6258 5.92C42.6258 6.64 43.1858 6.9 44.1058 7.08L46.4658 7.5C49.0458 7.96 50.2258 9.24 50.2258 11.3C50.2258 13.9 47.9658 15.24 45.0858 15.24C41.7258 15.24 39.3258 13.58 39.3258 10.52ZM55.5883 2.4H58.9683L64.0483 15H60.8083L59.7283 12.28H54.6483L53.5883 15H50.5483L55.5883 2.4ZM57.1483 5.86L55.5283 10H58.8483L57.2283 5.86H57.1483ZM68.142 12.6H69.782C72.162 12.6 73.542 11.16 73.542 8.68C73.542 6.24 72.162 4.8 69.782 4.8H68.142V12.6ZM65.102 15V2.4H69.982C74.122 2.4 76.682 4.76 76.682 8.7C76.682 12.64 74.122 15 69.982 15H65.102ZM87.8689 12.5V15H78.1489V2.4H87.6889V4.9H81.1289V7.38H86.2289V9.84H81.1289V12.5H87.8689ZM100.617 15H97.5366C97.2766 14.66 97.1166 13.84 97.0166 12.5C96.9166 11.08 96.2766 10.62 95.0166 10.62H92.4766V15H89.4966V2.4H95.5766C98.8366 2.4 100.437 3.92 100.437 6.34C100.437 8.2 99.2566 9.36 97.7166 9.56C99.0566 9.82 99.8166 10.6 99.9566 12.08C100.137 13.94 100.197 14.54 100.617 15ZM92.4766 8.28H95.0966C96.6766 8.28 97.4566 7.82 97.4566 6.58C97.4566 5.46 96.6766 4.84 95.0966 4.84H92.4766V8.28Z" fill="white"/>
<path d="M17.6 19.4V18.9H17.2615L17.1358 19.2143L17.6 19.4ZM20.98 19.4L21.4437 19.213L21.3175 18.9H20.98V19.4ZM26.06 32V32.5H26.8007L26.5237 31.813L26.06 32ZM22.82 32L22.3553 32.1845L22.4806 32.5H22.82V32ZM21.74 29.28L22.2047 29.0955L22.0794 28.78H21.74V29.28ZM16.66 29.28V28.78H16.3182L16.1941 29.0984L16.66 29.28ZM15.6 32V32.5H15.9418L16.0659 32.1816L15.6 32ZM12.56 32L12.0958 31.8143L11.8215 32.5H12.56V32ZM19.16 22.86V22.36H18.8187L18.6944 22.6778L19.16 22.86ZM17.54 27L17.0744 26.8178L16.8074 27.5H17.54V27ZM20.86 27V27.5H21.5926L21.3256 26.8178L20.86 27ZM19.24 22.86L19.7056 22.6778L19.5813 22.36H19.24V22.86ZM17.6 19.9H20.98V18.9H17.6V19.9ZM20.5163 19.587L25.5963 32.187L26.5237 31.813L21.4437 19.213L20.5163 19.587ZM26.06 31.5H22.82V32.5H26.06V31.5ZM23.2847 31.8155L22.2047 29.0955L21.2753 29.4645L22.3553 32.1845L23.2847 31.8155ZM21.74 28.78H16.66V29.78H21.74V28.78ZM16.1941 29.0984L15.1341 31.8184L16.0659 32.1816L17.1259 29.4616L16.1941 29.0984ZM15.6 31.5H12.56V32.5H15.6V31.5ZM13.0242 32.1857L18.0642 19.5857L17.1358 19.2143L12.0958 31.8143L13.0242 32.1857ZM18.6944 22.6778L17.0744 26.8178L18.0056 27.1822L19.6256 23.0422L18.6944 22.6778ZM17.54 27.5H20.86V26.5H17.54V27.5ZM21.3256 26.8178L19.7056 22.6778L18.7744 23.0422L20.3944 27.1822L21.3256 26.8178ZM19.24 22.36H19.16V23.36H19.24V22.36ZM38.4483 24.34L38.4652 24.8397L38.9926 24.8219L38.9464 24.2961L38.4483 24.34ZM35.4883 24.44L34.9908 24.4904L35.0379 24.9555L35.5052 24.9397L35.4883 24.44ZM35.6683 27.74L36.1395 27.9072L36.3762 27.24H35.6683V27.74ZM32.6483 27.74H32.1483V28.24H32.6483V27.74ZM32.6483 25.54V25.04H32.1483V25.54H32.6483ZM38.5283 25.54H39.0283V25.04H38.5283V25.54ZM38.5283 32V32.5H39.0283V32H38.5283ZM35.8683 32H35.3683V32.5H35.8683V32ZM35.8683 30.42H36.3683L35.4283 30.1825L35.8683 30.42ZM32.0683 31.74C28.8673 31.74 26.4483 29.3473 26.4483 25.7H25.4483C25.4483 29.8527 28.2693 32.74 32.0683 32.74V31.74ZM26.4483 25.7C26.4483 22.0982 29.0424 19.66 32.3683 19.66V18.66C28.4942 18.66 25.4483 21.5418 25.4483 25.7H26.4483ZM32.3683 19.66C34.1078 19.66 35.4311 20.1341 36.3469 20.9341C37.2603 21.732 37.8194 22.8983 37.9502 24.3839L38.9464 24.2961C38.7972 22.6017 38.1463 21.178 37.0047 20.1809C35.8655 19.1859 34.2888 18.66 32.3683 18.66V19.66ZM38.4314 23.8403L35.4714 23.9403L35.5052 24.9397L38.4652 24.8397L38.4314 23.8403ZM35.9857 24.3896C35.8952 23.4958 35.5384 22.7206 34.9099 22.1711C34.2827 21.6227 33.4321 21.34 32.4283 21.34V22.34C33.2444 22.34 33.8439 22.5673 34.2517 22.9239C34.6582 23.2794 34.9213 23.8042 34.9908 24.4904L35.9857 24.3896ZM32.4283 21.34C31.2489 21.34 30.2642 21.7717 29.5815 22.5668C28.9065 23.3527 28.5683 24.4444 28.5683 25.7H29.5683C29.5683 24.6156 29.86 23.7773 30.3401 23.2182C30.8124 22.6683 31.5076 22.34 32.4283 22.34V21.34ZM28.5683 25.7C28.5683 26.9862 28.9169 28.1107 29.6307 28.9206C30.3518 29.7388 31.3968 30.18 32.6683 30.18V29.18C31.6397 29.18 30.8848 28.8312 30.3809 28.2594C29.8696 27.6793 29.5683 26.8138 29.5683 25.7H28.5683ZM32.6683 30.18C34.2163 30.18 35.6151 29.3849 36.1395 27.9072L35.1971 27.5728C34.8414 28.5751 33.8802 29.18 32.6683 29.18V30.18ZM35.6683 27.24H32.6483V28.24H35.6683V27.24ZM33.1483 27.74V25.54H32.1483V27.74H33.1483ZM32.6483 26.04H38.5283V25.04H32.6483V26.04ZM38.0283 25.54V32H39.0283V25.54H38.0283ZM38.5283 31.5H35.8683V32.5H38.5283V31.5ZM36.3683 32V30.42H35.3683V32H36.3683ZM35.4283 30.1825C34.8728 31.2118 33.6591 31.74 32.0683 31.74V32.74C33.8375 32.74 35.5038 32.1482 36.3083 30.6575L35.4283 30.1825ZM50.1736 29.5H50.6736V29H50.1736V29.5ZM50.1736 32V32.5H50.6736V32H50.1736ZM40.4536 32H39.9536V32.5H40.4536V32ZM40.4536 19.4V18.9H39.9536V19.4H40.4536ZM49.9936 19.4H50.4936V18.9H49.9936V19.4ZM49.9936 21.9V22.4H50.4936V21.9H49.9936ZM43.4336 21.9V21.4H42.9336V21.9H43.4336ZM43.4336 24.38H42.9336V24.88H43.4336V24.38ZM48.5336 24.38H49.0336V23.88H48.5336V24.38ZM48.5336 26.84V27.34H49.0336V26.84H48.5336ZM43.4336 26.84V26.34H42.9336V26.84H43.4336ZM43.4336 29.5H42.9336V30H43.4336V29.5ZM49.6736 29.5V32H50.6736V29.5H49.6736ZM50.1736 31.5H40.4536V32.5H50.1736V31.5ZM40.9536 32V19.4H39.9536V32H40.9536ZM40.4536 19.9H49.9936V18.9H40.4536V19.9ZM49.4936 19.4V21.9H50.4936V19.4H49.4936ZM49.9936 21.4H43.4336V22.4H49.9936V21.4ZM42.9336 21.9V24.38H43.9336V21.9H42.9336ZM43.4336 24.88H48.5336V23.88H43.4336V24.88ZM48.0336 24.38V26.84H49.0336V24.38H48.0336ZM48.5336 26.34H43.4336V27.34H48.5336V26.34ZM42.9336 26.84V29.5H43.9336V26.84H42.9336ZM43.4336 30H50.1736V29H43.4336V30ZM54.7212 19.4L55.1291 19.1108L54.9797 18.9H54.7212V19.4ZM60.0812 26.96L59.6734 27.2492L60.5812 28.5297V26.96H60.0812ZM60.0812 19.4V18.9H59.5812V19.4H60.0812ZM62.8613 19.4H63.3613V18.9H62.8613V19.4ZM62.8613 32V32.5H63.3613V32H62.8613ZM60.4412 32L60.0367 32.2938L60.1865 32.5H60.4412V32ZM54.6012 23.96L55.0058 23.6662L54.1012 22.4209V23.96H54.6012ZM54.6012 32V32.5H55.1012V32H54.6012ZM51.8013 32H51.3013V32.5H51.8013V32ZM51.8013 19.4V18.9H51.3013V19.4H51.8013ZM54.3134 19.6892L59.6734 27.2492L60.4891 26.6708L55.1291 19.1108L54.3134 19.6892ZM60.5812 26.96V19.4H59.5812V26.96H60.5812ZM60.0812 19.9H62.8613V18.9H60.0812V19.9ZM62.3613 19.4V32H63.3613V19.4H62.3613ZM62.8613 31.5H60.4412V32.5H62.8613V31.5ZM60.8458 31.7062L55.0058 23.6662L54.1967 24.2538L60.0367 32.2938L60.8458 31.7062ZM54.1012 23.96V32H55.1012V23.96H54.1012ZM54.6012 31.5H51.8013V32.5H54.6012V31.5ZM52.3013 32V19.4H51.3013V32H52.3013ZM51.8013 19.9H54.7212V18.9H51.8013V19.9ZM76.8267 24.72L76.8474 25.2196L77.3612 25.1983L77.3255 24.6853L76.8267 24.72ZM73.9267 24.84L73.4299 24.8959L73.4819 25.3588L73.9474 25.3396L73.9267 24.84ZM73.9267 26.56L73.9474 26.0604L73.4819 26.0412L73.4299 26.5041L73.9267 26.56ZM76.8267 26.68L77.3255 26.7147L77.3612 26.2017L76.8474 26.1804L76.8267 26.68ZM64.8467 25.7C64.8467 22.0941 67.3849 19.66 70.7467 19.66V18.66C66.8285 18.66 63.8467 21.5459 63.8467 25.7H64.8467ZM70.7467 19.66C72.5369 19.66 73.8695 20.2225 74.7796 21.1125C75.6937 22.0063 76.2248 23.2729 76.3279 24.7547L77.3255 24.6853C77.2087 23.0071 76.5998 21.4937 75.4788 20.3975C74.354 19.2975 72.7565 18.66 70.7467 18.66V19.66ZM76.806 24.2204L73.906 24.3404L73.9474 25.3396L76.8474 25.2196L76.806 24.2204ZM74.4236 24.7841C74.3255 23.9124 74.0214 23.0493 73.4117 22.3982C72.791 21.7354 71.8979 21.34 70.7267 21.34V22.34C71.6556 22.34 72.2724 22.6446 72.6817 23.0817C73.1021 23.5307 73.3479 24.1676 73.4299 24.8959L74.4236 24.7841ZM70.7267 21.34C69.5831 21.34 68.6225 21.7699 67.9563 22.5635C67.2985 23.347 66.9667 24.4371 66.9667 25.7H67.9667C67.9667 24.6029 68.2549 23.763 68.7222 23.2065C69.1809 22.6601 69.8503 22.34 70.7267 22.34V21.34ZM66.9667 25.7C66.9667 26.9629 67.2985 28.053 67.9563 28.8365C68.6225 29.6301 69.5831 30.06 70.7267 30.06V29.06C69.8503 29.06 69.1809 28.7399 68.7222 28.1935C68.2549 27.637 67.9667 26.7971 67.9667 25.7H66.9667ZM70.7267 30.06C71.8979 30.06 72.791 29.6646 73.4117 29.0017C74.0214 28.3507 74.3255 27.4876 74.4236 26.6159L73.4299 26.5041C73.3479 27.2324 73.1021 27.8693 72.6817 28.3182C72.2724 28.7554 71.6556 29.06 70.7267 29.06V30.06ZM73.906 27.0596L76.806 27.1796L76.8474 26.1804L73.9474 26.0604L73.906 27.0596ZM76.3279 26.6453C76.2248 28.1271 75.6937 29.3937 74.7796 30.2875C73.8695 31.1775 72.5369 31.74 70.7467 31.74V32.74C72.7565 32.74 74.354 32.1025 75.4788 31.0025C76.5998 29.9063 77.2087 28.3929 77.3255 26.7147L76.3279 26.6453ZM70.7467 31.74C67.3849 31.74 64.8467 29.3059 64.8467 25.7H63.8467C63.8467 29.8541 66.8285 32.74 70.7467 32.74V31.74ZM82.9453 24.26L82.523 24.5276L82.9552 25.2097L83.3731 24.5188L82.9453 24.26ZM85.8853 19.4V18.9H85.6034L85.4575 19.1412L85.8853 19.4ZM89.1453 19.4L89.5694 19.6649L90.0472 18.9H89.1453V19.4ZM84.2853 27.18L83.8613 26.9151L83.7853 27.0367V27.18H84.2853ZM84.2853 32V32.5H84.7853V32H84.2853ZM81.3453 32H80.8453V32.5H81.3453V32ZM81.3453 27.18H81.8453V27.0372L81.7699 26.9159L81.3453 27.18ZM76.5053 19.4V18.9H75.6054L76.0808 19.6641L76.5053 19.4ZM79.8653 19.4L80.2876 19.1323L80.1404 18.9H79.8653V19.4ZM83.3731 24.5188L86.3131 19.6588L85.4575 19.1412L82.5175 24.0012L83.3731 24.5188ZM85.8853 19.9H89.1453V18.9H85.8853V19.9ZM88.7213 19.1351L83.8613 26.9151L84.7094 27.4449L89.5694 19.6649L88.7213 19.1351ZM83.7853 27.18V32H84.7853V27.18H83.7853ZM84.2853 31.5H81.3453V32.5H84.2853V31.5ZM81.8453 32V27.18H80.8453V32H81.8453ZM81.7699 26.9159L76.9299 19.1359L76.0808 19.6641L80.9208 27.4441L81.7699 26.9159ZM76.5053 19.9H79.8653V18.9H76.5053V19.9ZM79.443 19.6676L82.523 24.5276L83.3676 23.9923L80.2876 19.1323L79.443 19.6676Z" fill="white"/>
</svg>
